# xmcd
#
# Track frame offsets: 
#        150
#        23396
#        48227
#        71987
#        94758
#        114931
#        141427
#        161931
#        185338
#        209062
#
# Disc length: 3107 seconds
#
# Revision: 0
# Processed by: cddbd v1.5.2PL0 Copyright (c) Steve Scherf et al.
# Submitted via: ExactAudioCopy v0.99pb5
#
DISCID=8f0c210a
DTITLE=Kha Tu - Toi van nho
DYEAR=1900
DGENRE=Soundtrack
TTITLE0=Toi van nho
TTITLE1=Dinh menh
TTITLE2=Em hau phuong , anh tien tuyen
TTITLE3=Tuyet lanh
TTITLE4=Mua mua di qua
TTITLE5=Mua sau rieng
TTITLE6=Buon thoi gian
TTITLE7=Noi lai tinh xua
TTITLE8=Hai hoa rung cho em
TTITLE9=Thuyen hoa vs Manh Quynh
EXTD=
EXTT0=
EXTT1=
EXTT2=
EXTT3=
EXTT4=
EXTT5=
EXTT6=
EXTT7=
EXTT8=
EXTT9=
PLAYORDER=
